<svg version="1.1" id="Layer_1" xmlns="http://www.w3.org/2000/svg" xmlns:xlink="http://www.w3.org/1999/xlink" x="0px" y="0px"
	 width="100%" viewBox="0 0 1090 230" enable-background="new 0 0 1090 230" xml:space="preserve">
<path fill="#FEFEFE" opacity="1.000000" stroke="none" 
	d="
M792.000000,231.000000 
	C528.000061,231.000000 264.500092,231.000000 1.000106,231.000000 
	C1.000071,154.333389 1.000071,77.666786 1.000035,1.000137 
	C364.333221,1.000091 727.666443,1.000091 1090.999756,1.000046 
	C1090.999756,77.666527 1090.999756,154.333054 1090.999878,230.999786 
	C991.500000,231.000000 892.000000,231.000000 792.000000,231.000000 
M919.210693,187.781281 
	C924.959900,186.240616 931.131348,185.569977 936.389893,183.018112 
	C970.572021,166.429932 975.596436,115.881775 945.999207,92.007027 
	C927.523804,77.103722 901.982727,78.166069 887.905701,92.147888 
	C887.517578,92.533371 886.828308,92.615776 885.806763,93.032196 
	C885.806763,90.748886 885.827759,88.947838 885.803406,87.147408 
	C885.600342,72.153801 885.415039,57.159859 885.163818,42.167038 
	C885.089905,37.757065 883.303711,34.403080 878.738586,33.171822 
	C866.363464,29.834114 860.075745,34.535713 860.012695,47.131454 
	C860.011047,47.464752 860.012390,47.798061 860.012390,48.131367 
	C860.012634,89.461136 859.999573,130.790909 860.041077,172.120636 
	C860.044067,175.103088 859.996582,178.215515 860.812500,181.023438 
	C861.395813,183.031052 863.018372,185.254868 864.808960,186.306503 
	C874.035278,191.725067 883.824158,187.120056 885.715759,176.756058 
	C885.760681,176.510056 886.140564,176.325165 886.732483,175.760544 
	C895.385132,184.477829 906.120605,188.130966 919.210693,187.781281 
M514.616028,71.833618 
	C506.935822,71.853943 507.198883,71.930099 505.026062,79.436020 
	C499.104797,99.890907 492.949768,120.278221 486.852325,140.681839 
	C486.376526,142.273956 485.628265,143.784637 485.006683,145.333160 
	C484.466156,145.335510 483.925629,145.337860 483.385101,145.340210 
	C475.492767,121.021912 467.600403,96.703606 459.606537,72.072449 
	C448.806366,72.072449 437.555725,72.072449 426.009277,72.072449 
	C426.596191,74.086662 427.091736,75.823875 427.608337,77.554810 
	C437.818329,111.766609 450.913513,144.837662 466.724670,176.847076 
	C467.614319,178.648117 468.582581,181.255646 467.932129,182.837082 
	C463.138733,194.491394 457.604248,199.158691 445.917297,198.571503 
	C440.831787,198.315979 435.796692,197.057175 430.280914,196.181335 
	C429.459717,200.006989 428.567291,204.177612 427.668793,208.346939 
	C426.737183,212.669907 425.799622,216.991592 424.725372,221.957825 
	C430.657867,223.250732 436.097900,224.777557 441.642731,225.584625 
	C463.662323,228.789627 478.937103,221.312759 490.246857,202.021210 
	C492.012787,199.008972 493.689148,195.929260 495.182495,192.774506 
	C509.157959,163.250946 520.977539,132.869415 531.143188,101.839653 
	C534.345032,92.066307 537.366272,82.233795 540.659058,71.831490 
	C531.849365,71.831490 523.716980,71.831490 514.616028,71.833618 
M121.372871,189.017517 
	C126.843788,186.220383 132.314713,183.423248 138.154083,180.437714 
	C138.154083,183.454330 138.154083,186.064865 138.154083,188.789169 
	C140.833786,188.789169 143.242020,188.789169 145.813583,188.789169 
	C145.813583,148.850662 145.813583,109.125404 145.813583,69.354050 
	C143.091217,69.354050 140.571594,69.354050 137.691315,69.354050 
	C137.691315,72.434250 137.691315,75.158104 137.691315,78.134186 
	C136.851395,77.736221 136.399353,77.583046 136.012604,77.330063 
	C111.606094,61.364956 86.031517,59.634945 59.893051,72.152489 
	C18.983696,91.743736 10.257112,144.398590 43.154701,174.485046 
	C65.636162,195.045425 91.992538,199.035873 121.372871,189.017517 
M555.809875,171.609970 
	C561.790894,180.871552 571.013062,184.965012 581.289429,186.610809 
	C602.970947,190.083130 624.455078,187.838745 645.736267,183.141693 
	C646.890991,182.886810 648.575195,181.152390 648.574341,180.107880 
	C648.554199,155.291153 649.153076,130.433426 647.903931,105.670692 
	C646.851196,84.803146 634.185913,72.305588 613.472168,70.046524 
	C603.628601,68.972977 593.540833,69.368210 583.622131,70.006271 
	C576.105835,70.489792 568.682068,72.411049 560.884277,73.749649 
	C562.388123,83.213524 563.730469,91.660858 565.097839,100.265724 
	C576.759583,96.322128 588.332458,95.348541 600.040710,95.980240 
	C612.116089,96.631744 618.628723,104.388626 617.172607,116.533279 
	C615.409485,116.285507 613.655212,116.004372 611.892273,115.796753 
	C598.849670,114.260773 585.901123,114.555992 573.383423,118.892418 
	C562.380737,122.703995 554.113098,129.660965 551.505554,141.520126 
	C549.266663,151.702896 549.995056,161.728012 555.809875,171.609970 
M212.009872,183.589615 
	C238.073563,192.080826 263.915680,187.654327 289.129303,182.909012 
	C289.129303,155.981873 290.183868,129.655045 288.780670,103.459854 
	C287.741882,84.067787 275.024994,72.110229 255.576004,70.207184 
	C243.602463,69.035591 231.367661,70.029526 219.285538,70.694374 
	C213.602570,71.007080 208.003006,72.835808 202.219803,74.007095 
	C203.713837,83.237396 205.074768,91.645370 206.467972,100.252686 
	C218.244400,96.331711 229.635513,95.381355 241.160889,95.963531 
	C253.568588,96.590263 260.633087,105.073402 258.260712,116.506744 
	C256.650848,116.278099 255.025665,116.024620 253.394424,115.819237 
	C241.543991,114.327202 229.773651,114.687698 218.194458,117.756844 
	C202.614700,121.886360 193.255615,132.331604 191.929565,146.795914 
	C190.325974,164.287613 196.711197,176.279053 212.009872,183.589615 
M838.984863,120.500000 
	C838.978088,111.671097 839.059875,102.840996 838.941223,94.013596 
	C838.805481,83.917847 834.959656,80.452675 825.003601,81.171860 
	C816.488464,81.786949 814.345032,84.327415 813.755737,95.008842 
	C812.818604,94.171616 812.105774,93.580154 811.443665,92.936501 
	C799.993225,81.805267 786.261169,78.946274 771.257812,82.886322 
	C732.782104,92.990425 719.709229,141.816696 747.162292,171.786789 
	C765.825623,192.161270 797.023193,193.353455 813.146606,174.567093 
	C813.276123,174.416199 813.735474,174.548386 814.255188,174.548386 
	C813.661438,179.157700 813.403687,183.611877 818.491577,186.180359 
	C829.429993,191.702377 838.935364,186.108536 838.969177,173.974030 
	C839.017944,156.482803 838.983704,138.991348 838.984863,120.500000 
M339.035187,71.863525 
	C328.309692,71.863525 317.584198,71.863525 306.310211,71.863525 
	C318.268768,110.713600 331.696838,148.085281 349.692352,183.682846 
	C350.281006,184.847244 352.496765,185.747681 353.988403,185.800385 
	C360.479370,186.029739 366.990662,185.713043 373.478821,185.979218 
	C376.661896,186.109787 378.198029,184.995743 379.376282,182.103714 
	C389.859924,156.371872 400.707336,130.785568 410.936371,104.953964 
	C415.132935,94.356277 418.078064,83.263031 421.692871,72.084702 
	C410.070435,72.084702 399.139587,72.084702 388.737732,72.084702 
	C380.871552,96.933174 373.126892,121.397713 364.967651,147.171875 
	C363.802338,144.543304 363.229431,143.518402 362.879578,142.422333 
	C355.946625,120.701492 349.050568,98.968857 342.106750,77.251480 
	C341.527344,75.439400 340.661255,73.718994 339.035187,71.863525 
M1014.290466,102.445358 
	C1019.185547,102.002663 1024.318604,100.430946 1028.916138,101.399742 
	C1034.816162,102.642952 1040.329468,105.831223 1045.928101,108.361519 
	C1051.330933,110.803337 1054.976318,109.529762 1058.624756,103.611061 
	C1062.083130,98.000671 1061.706787,93.875748 1056.780029,90.562637 
	C1039.156128,78.711510 1020.305908,76.405594 1000.822205,85.075256 
	C985.719788,91.795380 980.281250,111.251053 988.657715,125.566940 
	C993.383972,133.644440 1001.116089,137.296906 1009.444824,140.072510 
	C1017.337402,142.702774 1025.405762,144.836258 1033.200684,147.718735 
	C1039.346924,149.991501 1041.643311,153.622665 1041.223755,158.395493 
	C1040.841797,162.740585 1037.178711,165.908554 1031.035156,167.176895 
	C1022.815674,168.873825 1015.187012,167.023575 1007.825012,163.378235 
	C1003.500549,161.236908 999.206299,158.957962 994.688660,157.319473 
	C992.778564,156.626709 989.803589,156.625488 988.212891,157.674774 
	C980.195190,162.963882 980.012146,172.870560 987.496887,178.838867 
	C1003.174683,191.340332 1035.604614,192.547516 1052.529907,181.949219 
	C1070.002319,171.008362 1071.316162,139.245575 1050.320557,130.161438 
	C1044.700684,127.729904 1038.790161,125.921555 1032.920776,124.129364 
	C1027.205811,122.384338 1021.162170,121.559097 1015.640442,119.375183 
	C1007.134644,116.011002 1006.439331,108.726913 1014.290466,102.445358 
M673.745483,94.499954 
	C673.745789,111.995758 673.713196,129.491669 673.769714,146.987289 
	C673.783691,151.314713 673.851440,155.665787 674.299866,159.963684 
	C675.911560,175.411148 682.467773,183.795685 695.682434,186.490601 
	C701.337097,187.643753 707.248840,187.740250 713.052307,187.845871 
	C715.005432,187.881424 717.705933,187.028564 718.823975,185.606323 
	C723.018005,180.270950 722.220276,173.936615 720.755920,167.929657 
	C719.584595,163.124878 715.219482,162.966187 711.088013,162.629089 
	C702.438599,161.923370 700.430969,159.761627 699.942200,151.169144 
	C699.809875,148.842438 699.810730,146.506149 699.810120,144.174240 
	C699.801941,112.181908 699.820862,80.189545 699.776550,48.197277 
	C699.772400,45.211346 699.982056,42.008629 698.997498,39.305367 
	C698.125793,36.912144 696.145996,34.138390 693.932922,33.149578 
	C682.535645,28.057304 673.846497,33.716530 673.774780,46.011463 
	C673.682434,61.840477 673.747864,77.670410 673.745483,94.499954 
M177.997940,179.464722 
	C177.997940,142.395813 177.997940,105.326889 177.997940,68.306351 
	C169.684448,68.306351 161.954193,68.306351 154.293655,68.306351 
	C154.293655,108.655670 154.293655,148.700043 154.293655,188.691742 
	C162.319290,188.691742 170.049561,188.691742 177.997940,188.691742 
	C177.997940,185.744537 177.997940,183.099014 177.997940,179.464722 
z"/>
<path fill="#5C5C5C" opacity="1.000000" stroke="none" 
	d="
M918.759766,187.799591 
	C906.120605,188.130966 895.385132,184.477829 886.732483,175.760544 
	C886.140564,176.325165 885.760681,176.510056 885.715759,176.756058 
	C883.824158,187.120056 874.035278,191.725067 864.808960,186.306503 
	C863.018372,185.254868 861.395813,183.031052 860.812500,181.023438 
	C859.996582,178.215515 860.044067,175.103088 860.041077,172.120636 
	C859.999573,130.790909 860.012634,89.461136 860.012390,48.131367 
	C860.012390,47.798061 860.011047,47.464752 860.012695,47.131454 
	C860.075745,34.535713 866.363464,29.834114 878.738586,33.171822 
	C883.303711,34.403080 885.089905,37.757065 885.163818,42.167038 
	C885.415039,57.159859 885.600342,72.153801 885.803406,87.147408 
	C885.827759,88.947838 885.806763,90.748886 885.806763,93.032196 
	C886.828308,92.615776 887.517578,92.533371 887.905701,92.147888 
	C901.982727,78.166069 927.523804,77.103722 945.999207,92.007027 
	C975.596436,115.881775 970.572021,166.429932 936.389893,183.018112 
	C931.131348,185.569977 924.959900,186.240616 918.759766,187.799591 
M888.446167,123.198662 
	C888.119812,124.140366 887.717224,125.063194 887.478516,126.026627 
	C884.771790,136.951645 886.420227,146.941986 894.655090,155.026520 
	C902.062500,162.298615 911.204224,164.022369 920.983948,161.183365 
	C933.140076,157.654449 940.421448,146.592743 939.875916,133.315109 
	C939.330872,120.048759 931.112305,109.886978 918.697327,107.128937 
	C906.403992,104.397911 895.060181,110.235542 888.446167,123.198662 
z"/>
<path fill="#030303" opacity="1.000000" stroke="none" 
	d="
M515.100342,71.832550 
	C523.716980,71.831490 531.849365,71.831490 540.659058,71.831490 
	C537.366272,82.233795 534.345032,92.066307 531.143188,101.839653 
	C520.977539,132.869415 509.157959,163.250946 495.182495,192.774506 
	C493.689148,195.929260 492.012787,199.008972 490.246857,202.021210 
	C478.937103,221.312759 463.662323,228.789627 441.642731,225.584625 
	C436.097900,224.777557 430.657867,223.250732 424.725372,221.957825 
	C425.799622,216.991592 426.737183,212.669907 427.668793,208.346939 
	C428.567291,204.177612 429.459717,200.006989 430.280914,196.181335 
	C435.796692,197.057175 440.831787,198.315979 445.917297,198.571503 
	C457.604248,199.158691 463.138733,194.491394 467.932129,182.837082 
	C468.582581,181.255646 467.614319,178.648117 466.724670,176.847076 
	C450.913513,144.837662 437.818329,111.766609 427.608337,77.554810 
	C427.091736,75.823875 426.596191,74.086662 426.009277,72.072449 
	C437.555725,72.072449 448.806366,72.072449 459.606537,72.072449 
	C467.600403,96.703606 475.492767,121.021912 483.385101,145.340210 
	C483.925629,145.337860 484.466156,145.335510 485.006683,145.333160 
	C485.628265,143.784637 486.376526,142.273956 486.852325,140.681839 
	C492.949768,120.278221 499.104797,99.890907 505.026062,79.436020 
	C507.198883,71.930099 506.935822,71.853943 515.100342,71.832550 
z"/>
<path fill="#020202" opacity="1.000000" stroke="none" 
	d="
M120.993393,189.102615 
	C91.992538,199.035873 65.636162,195.045425 43.154701,174.485046 
	C10.257112,144.398590 18.983696,91.743736 59.893051,72.152489 
	C86.031517,59.634945 111.606094,61.364956 136.012604,77.330063 
	C136.399353,77.583046 136.851395,77.736221 137.691315,78.134186 
	C137.691315,75.158104 137.691315,72.434250 137.691315,69.354050 
	C140.571594,69.354050 143.091217,69.354050 145.813583,69.354050 
	C145.813583,109.125404 145.813583,148.850662 145.813583,188.789169 
	C143.242020,188.789169 140.833786,188.789169 138.154083,188.789169 
	C138.154083,186.064865 138.154083,183.454330 138.154083,180.437714 
	C132.314713,183.423248 126.843788,186.220383 120.993393,189.102615 
M98.892738,167.766525 
	C111.809090,165.279816 121.907692,158.892487 128.271469,147.029297 
	C136.592896,131.516647 133.725967,112.574570 121.023613,100.399483 
	C107.552689,87.487709 87.805420,85.489296 71.472237,95.384880 
	C57.073448,104.108513 49.908432,122.688515 54.535175,139.103424 
	C59.224339,155.739807 75.347633,169.978683 98.892738,167.766525 
z"/>
<path fill="#040404" opacity="1.000000" stroke="none" 
	d="
M555.586548,171.319763 
	C549.995056,161.728012 549.266663,151.702896 551.505554,141.520126 
	C554.113098,129.660965 562.380737,122.703995 573.383423,118.892418 
	C585.901123,114.555992 598.849670,114.260773 611.892273,115.796753 
	C613.655212,116.004372 615.409485,116.285507 617.172607,116.533279 
	C618.628723,104.388626 612.116089,96.631744 600.040710,95.980240 
	C588.332458,95.348541 576.759583,96.322128 565.097839,100.265724 
	C563.730469,91.660858 562.388123,83.213524 560.884277,73.749649 
	C568.682068,72.411049 576.105835,70.489792 583.622131,70.006271 
	C593.540833,69.368210 603.628601,68.972977 613.472168,70.046524 
	C634.185913,72.305588 646.851196,84.803146 647.903931,105.670692 
	C649.153076,130.433426 648.554199,155.291153 648.574341,180.107880 
	C648.575195,181.152390 646.890991,182.886810 645.736267,183.141693 
	C624.455078,187.838745 602.970947,190.083130 581.289429,186.610809 
	C571.013062,184.965012 561.790894,180.871552 555.586548,171.319763 
M584.232239,157.058426 
	C586.816589,158.734985 589.268066,161.549484 592.010864,161.869934 
	C599.563416,162.752380 607.239014,162.723724 614.863281,162.671692 
	C615.812927,162.665207 617.497009,160.381485 617.559692,159.090698 
	C617.850464,153.106033 617.888062,147.087692 617.534912,141.109848 
	C617.457336,139.796494 615.470581,137.582916 614.269165,137.517944 
	C607.811218,137.168671 601.211304,136.607666 594.871399,137.545761 
	C584.064636,139.144852 580.519043,145.845688 584.232239,157.058426 
z"/>
<path fill="#030303" opacity="1.000000" stroke="none" 
	d="
M211.671997,183.413651 
	C196.711197,176.279053 190.325974,164.287613 191.929565,146.795914 
	C193.255615,132.331604 202.614700,121.886360 218.194458,117.756844 
	C229.773651,114.687698 241.543991,114.327202 253.394424,115.819237 
	C255.025665,116.024620 256.650848,116.278099 258.260712,116.506744 
	C260.633087,105.073402 253.568588,96.590263 241.160889,95.963531 
	C229.635513,95.381355 218.244400,96.331711 206.467972,100.252686 
	C205.074768,91.645370 203.713837,83.237396 202.219803,74.007095 
	C208.003006,72.835808 213.602570,71.007080 219.285538,70.694374 
	C231.367661,70.029526 243.602463,69.035591 255.576004,70.207184 
	C275.024994,72.110229 287.741882,84.067787 288.780670,103.459854 
	C290.183868,129.655045 289.129303,155.981873 289.129303,182.909012 
	C263.915680,187.654327 238.073563,192.080826 211.671997,183.413651 
M258.830719,139.101410 
	C252.290588,134.806076 232.611618,136.305191 227.244339,141.507645 
	C221.203949,147.362488 223.230362,158.406738 231.159882,161.314316 
	C240.152908,164.611847 249.409088,163.103867 258.900177,162.524170 
	C258.900177,154.608459 258.900177,147.310196 258.830719,139.101410 
z"/>
<path fill="#5C5C5C" opacity="1.000000" stroke="none" 
	d="
M838.984863,121.000000 
	C838.983704,138.991348 839.017944,156.482803 838.969177,173.974030 
	C838.935364,186.108536 829.429993,191.702377 818.491577,186.180359 
	C813.403687,183.611877 813.661438,179.157700 814.255188,174.548386 
	C813.735474,174.548386 813.276123,174.416199 813.146606,174.567093 
	C797.023193,193.353455 765.825623,192.161270 747.162292,171.786789 
	C719.709229,141.816696 732.782104,92.990425 771.257812,82.886322 
	C786.261169,78.946274 799.993225,81.805267 811.443665,92.936501 
	C812.105774,93.580154 812.818604,94.171616 813.755737,95.008842 
	C814.345032,84.327415 816.488464,81.786949 825.003601,81.171860 
	C834.959656,80.452675 838.805481,83.917847 838.941223,94.013596 
	C839.059875,102.840996 838.978088,111.671097 838.984863,121.000000 
M761.245483,120.952271 
	C760.272278,124.112343 758.945007,127.211441 758.388367,130.443268 
	C756.214111,143.066635 763.166260,155.357834 775.016907,160.293442 
	C786.602783,165.118744 799.517517,161.736557 806.791321,151.972153 
	C816.314392,139.188309 813.529724,119.975891 800.866455,111.093925 
	C787.856018,101.968460 770.735657,105.986015 761.245483,120.952271 
z"/>
<path fill="#030303" opacity="1.000000" stroke="none" 
	d="
M339.481750,71.909767 
	C340.661255,73.718994 341.527344,75.439400 342.106750,77.251480 
	C349.050568,98.968857 355.946625,120.701492 362.879578,142.422333 
	C363.229431,143.518402 363.802338,144.543304 364.967651,147.171875 
	C373.126892,121.397713 380.871552,96.933174 388.737732,72.084702 
	C399.139587,72.084702 410.070435,72.084702 421.692871,72.084702 
	C418.078064,83.263031 415.132935,94.356277 410.936371,104.953964 
	C400.707336,130.785568 389.859924,156.371872 379.376282,182.103714 
	C378.198029,184.995743 376.661896,186.109787 373.478821,185.979218 
	C366.990662,185.713043 360.479370,186.029739 353.988403,185.800385 
	C352.496765,185.747681 350.281006,184.847244 349.692352,183.682846 
	C331.696838,148.085281 318.268768,110.713600 306.310211,71.863525 
	C317.584198,71.863525 328.309692,71.863525 339.481750,71.909767 
z"/>
<path fill="#5C5C5C" opacity="1.000000" stroke="none" 
	d="
M1013.941528,102.636986 
	C1006.439331,108.726913 1007.134644,116.011002 1015.640442,119.375183 
	C1021.162170,121.559097 1027.205811,122.384338 1032.920776,124.129364 
	C1038.790161,125.921555 1044.700684,127.729904 1050.320557,130.161438 
	C1071.316162,139.245575 1070.002319,171.008362 1052.529907,181.949219 
	C1035.604614,192.547516 1003.174683,191.340332 987.496887,178.838867 
	C980.012146,172.870560 980.195190,162.963882 988.212891,157.674774 
	C989.803589,156.625488 992.778564,156.626709 994.688660,157.319473 
	C999.206299,158.957962 1003.500549,161.236908 1007.825012,163.378235 
	C1015.187012,167.023575 1022.815674,168.873825 1031.035156,167.176895 
	C1037.178711,165.908554 1040.841797,162.740585 1041.223755,158.395493 
	C1041.643311,153.622665 1039.346924,149.991501 1033.200684,147.718735 
	C1025.405762,144.836258 1017.337402,142.702774 1009.444824,140.072510 
	C1001.116089,137.296906 993.383972,133.644440 988.657715,125.566940 
	C980.281250,111.251053 985.719788,91.795380 1000.822205,85.075256 
	C1020.305908,76.405594 1039.156128,78.711510 1056.780029,90.562637 
	C1061.706787,93.875748 1062.083130,98.000671 1058.624756,103.611061 
	C1054.976318,109.529762 1051.330933,110.803337 1045.928101,108.361519 
	C1040.329468,105.831223 1034.816162,102.642952 1028.916138,101.399742 
	C1024.318604,100.430946 1019.185547,102.002663 1013.941528,102.636986 
z"/>
<path fill="#5C5C5C" opacity="1.000000" stroke="none" 
	d="
M673.745361,93.999954 
	C673.747864,77.670410 673.682434,61.840477 673.774780,46.011463 
	C673.846497,33.716530 682.535645,28.057304 693.932922,33.149578 
	C696.145996,34.138390 698.125793,36.912144 698.997498,39.305367 
	C699.982056,42.008629 699.772400,45.211346 699.776550,48.197277 
	C699.820862,80.189545 699.801941,112.181908 699.810120,144.174240 
	C699.810730,146.506149 699.809875,148.842438 699.942200,151.169144 
	C700.430969,159.761627 702.438599,161.923370 711.088013,162.629089 
	C715.219482,162.966187 719.584595,163.124878 720.755920,167.929657 
	C722.220276,173.936615 723.018005,180.270950 718.823975,185.606323 
	C717.705933,187.028564 715.005432,187.881424 713.052307,187.845871 
	C707.248840,187.740250 701.337097,187.643753 695.682434,186.490601 
	C682.467773,183.795685 675.911560,175.411148 674.299866,159.963684 
	C673.851440,155.665787 673.783691,151.314713 673.769714,146.987289 
	C673.713196,129.491669 673.745789,111.995758 673.745361,93.999954 
z"/>
<path fill="#CC0000" opacity="1.000000" stroke="none" 
	d="
M177.997940,179.959106 
	C177.997940,183.099014 177.997940,185.744537 177.997940,188.691742 
	C170.049561,188.691742 162.319290,188.691742 154.293655,188.691742 
	C154.293655,148.700043 154.293655,108.655670 154.293655,68.306351 
	C161.954193,68.306351 169.684448,68.306351 177.997940,68.306351 
	C177.997940,105.326889 177.997940,142.395813 177.997940,179.959106 
z"/>
<path fill="#FDFDFD" opacity="1.000000" stroke="none" 
	d="
M888.624023,122.856056 
	C895.060181,110.235542 906.403992,104.397911 918.697327,107.128937 
	C931.112305,109.886978 939.330872,120.048759 939.875916,133.315109 
	C940.421448,146.592743 933.140076,157.654449 920.983948,161.183365 
	C911.204224,164.022369 902.062500,162.298615 894.655090,155.026520 
	C886.420227,146.941986 884.771790,136.951645 887.478516,126.026627 
	C887.717224,125.063194 888.119812,124.140366 888.624023,122.856056 
z"/>
<path fill="#FEFEFE" opacity="1.000000" stroke="none" 
	d="
M98.454140,167.838013 
	C75.347633,169.978683 59.224339,155.739807 54.535175,139.103424 
	C49.908432,122.688515 57.073448,104.108513 71.472237,95.384880 
	C87.805420,85.489296 107.552689,87.487709 121.023613,100.399483 
	C133.725967,112.574570 136.592896,131.516647 128.271469,147.029297 
	C121.907692,158.892487 111.809090,165.279816 98.454140,167.838013 
z"/>
<path fill="#F8F8F8" opacity="1.000000" stroke="none" 
	d="
M584.051819,156.722061 
	C580.519043,145.845688 584.064636,139.144852 594.871399,137.545761 
	C601.211304,136.607666 607.811218,137.168671 614.269165,137.517944 
	C615.470581,137.582916 617.457336,139.796494 617.534912,141.109848 
	C617.888062,147.087692 617.850464,153.106033 617.559692,159.090698 
	C617.497009,160.381485 615.812927,162.665207 614.863281,162.671692 
	C607.239014,162.723724 599.563416,162.752380 592.010864,161.869934 
	C589.268066,161.549484 586.816589,158.734985 584.051819,156.722061 
z"/>
<path fill="#F9F9F9" opacity="1.000000" stroke="none" 
	d="
M258.865448,139.556671 
	C258.900177,147.310196 258.900177,154.608459 258.900177,162.524170 
	C249.409088,163.103867 240.152908,164.611847 231.159882,161.314316 
	C223.230362,158.406738 221.203949,147.362488 227.244339,141.507645 
	C232.611618,136.305191 252.290588,134.806076 258.865448,139.556671 
z"/>
<path fill="#FDFDFD" opacity="1.000000" stroke="none" 
	d="
M761.433838,120.627731 
	C770.735657,105.986015 787.856018,101.968460 800.866455,111.093925 
	C813.529724,119.975891 816.314392,139.188309 806.791321,151.972153 
	C799.517517,161.736557 786.602783,165.118744 775.016907,160.293442 
	C763.166260,155.357834 756.214111,143.066635 758.388367,130.443268 
	C758.945007,127.211441 760.272278,124.112343 761.433838,120.627731 
z"/>
</svg>